<?xml version="1.0" encoding="UTF-8"?>
<svg id="Camada_2" data-name="Camada 2" xmlns="http://www.w3.org/2000/svg" viewBox="0 0 502.84 144.45">
  <defs>
    <style>
      .cls-1 {
        fill: #0bbbef;
      }
    </style>
  </defs>
  <g id="Camada_1-2" data-name="Camada 1">
    <g>
      <g>
        <path class="cls-1" d="M227.86,39.44v3.93h-30.41V.37h29.49v3.93h-24.94v15.3h22.24v3.87h-22.24v15.97h25.86Z"/>
        <path class="cls-1" d="M231.98,38.15l1.78-3.5c3.07,3.01,8.54,5.22,14.19,5.22,8.05,0,11.55-3.38,11.55-7.62,0-11.79-26.48-4.55-26.48-20.46,0-6.33,4.91-11.79,15.85-11.79,4.85,0,9.89,1.41,13.33,3.81l-1.54,3.62c-3.69-2.4-7.99-3.56-11.79-3.56-7.86,0-11.36,3.5-11.36,7.8,0,11.79,26.48,4.67,26.48,20.33,0,6.33-5.04,11.73-16.03,11.73-6.45,0-12.78-2.27-15.97-5.59Z"/>
        <path class="cls-1" d="M305.08,15.11c0,9.15-6.64,14.68-17.57,14.68h-11.55v13.58h-4.55V.37h16.09c10.93,0,17.57,5.53,17.57,14.74ZM300.54,15.11c0-6.88-4.55-10.81-13.15-10.81h-11.43v21.5h11.43c8.6,0,13.15-3.93,13.15-10.69Z"/>
        <path class="cls-1" d="M309.26,21.87c0-12.53,9.58-21.87,22.61-21.87s22.55,9.28,22.55,21.87-9.64,21.87-22.55,21.87-22.61-9.34-22.61-21.87ZM349.87,21.87c0-10.26-7.68-17.82-18-17.82s-18.12,7.56-18.12,17.82,7.74,17.82,18.12,17.82,18-7.56,18-17.82Z"/>
        <path class="cls-1" d="M391.52,43.37l-9.83-13.82c-1.11.12-2.21.18-3.44.18h-11.55v13.64h-4.55V.37h16.09c10.93,0,17.57,5.53,17.57,14.74,0,6.76-3.56,11.49-9.83,13.51l10.5,14.74h-4.98ZM391.27,15.11c0-6.88-4.55-10.81-13.15-10.81h-11.43v21.56h11.43c8.6,0,13.15-3.99,13.15-10.75Z"/>
        <path class="cls-1" d="M411.86,4.3h-15.11V.37h34.77v3.93h-15.11v39.07h-4.55V4.3Z"/>
        <path class="cls-1" d="M466.72,39.44v3.93h-30.41V.37h29.49v3.93h-24.94v15.3h22.24v3.87h-22.24v15.97h25.86Z"/>
        <path class="cls-1" d="M470.84,38.15l1.78-3.5c3.07,3.01,8.54,5.22,14.19,5.22,8.05,0,11.55-3.38,11.55-7.62,0-11.79-26.48-4.55-26.48-20.46,0-6.33,4.91-11.79,15.85-11.79,4.85,0,9.89,1.41,13.33,3.81l-1.54,3.62c-3.69-2.4-7.99-3.56-11.79-3.56-7.86,0-11.36,3.5-11.36,7.8,0,11.79,26.48,4.67,26.48,20.33,0,6.33-5.04,11.73-16.03,11.73-6.45,0-12.78-2.27-15.97-5.59Z"/>
        <path class="cls-1" d="M227.73,72.22h4.36v16.4c-4.05,3.62-9.83,5.47-15.79,5.47-13.09,0-22.67-9.28-22.67-21.87s9.58-21.87,22.73-21.87c6.51,0,12.16,2.09,15.97,6.2l-2.83,2.89c-3.62-3.56-7.92-5.04-12.96-5.04-10.63,0-18.43,7.56-18.43,17.82s7.8,17.82,18.37,17.82c4.12,0,7.92-.92,11.24-3.32v-14.5Z"/>
        <path class="cls-1" d="M269.45,82.24h-23.96l-5.16,11.49h-4.73l19.66-43h4.48l19.66,43h-4.79l-5.16-11.49ZM267.79,78.55l-10.32-23.1-10.32,23.1h20.64Z"/>
        <path class="cls-1" d="M328.73,50.72v43h-4.36v-34.4l-16.89,28.93h-2.15l-16.89-28.75v34.22h-4.36v-43h3.75l18.68,31.88,18.49-31.88h3.75Z"/>
        <path class="cls-1" d="M340.29,50.72h4.55v43h-4.55v-43Z"/>
        <path class="cls-1" d="M392.32,50.72v43h-3.75l-27.64-34.89v34.89h-4.55v-43h3.75l27.71,34.89v-34.89h4.48Z"/>
        <path class="cls-1" d="M434.16,72.22h4.36v16.4c-4.05,3.62-9.83,5.47-15.79,5.47-13.09,0-22.67-9.28-22.67-21.87s9.58-21.87,22.73-21.87c6.51,0,12.16,2.09,15.97,6.2l-2.83,2.89c-3.62-3.56-7.92-5.04-12.96-5.04-10.63,0-18.43,7.56-18.43,17.82s7.8,17.82,18.37,17.82c4.12,0,7.92-.92,11.24-3.32v-14.5Z"/>
        <path class="cls-1" d="M233.39,132.59c0,7.31-5.41,11.49-16.16,11.49h-19.78v-43h18.55c9.58,0,15.11,4.05,15.11,11.06,0,4.91-2.64,8.17-6.57,9.77,5.53,1.23,8.85,4.85,8.85,10.69ZM201.99,104.82v15.6h13.7c6.88,0,10.87-2.64,10.87-7.8s-3.99-7.8-10.87-7.8h-13.7ZM228.84,132.22c0-5.59-4.12-8.05-11.67-8.05h-15.17v16.16h15.17c7.56,0,11.67-2.46,11.67-8.11Z"/>
        <path class="cls-1" d="M270.68,144.08l-9.83-13.82c-1.11.12-2.21.18-3.44.18h-11.55v13.64h-4.55v-43h16.09c10.93,0,17.57,5.53,17.57,14.74,0,6.76-3.56,11.49-9.83,13.51l10.5,14.74h-4.98ZM270.43,115.82c0-6.88-4.55-10.81-13.15-10.81h-11.43v21.56h11.43c8.6,0,13.15-3.99,13.15-10.75Z"/>
        <path class="cls-1" d="M310.24,132.59h-23.96l-5.16,11.49h-4.73l19.66-43h4.48l19.66,43h-4.79l-5.16-11.49ZM308.58,128.9l-10.32-23.1-10.32,23.1h20.64Z"/>
        <path class="cls-1" d="M320.75,138.85l1.78-3.5c3.07,3.01,8.54,5.22,14.19,5.22,8.05,0,11.55-3.38,11.55-7.62,0-11.79-26.48-4.55-26.48-20.46,0-6.33,4.91-11.79,15.85-11.79,4.85,0,9.89,1.41,13.33,3.81l-1.54,3.62c-3.69-2.4-7.99-3.56-11.79-3.56-7.86,0-11.36,3.5-11.36,7.8,0,11.79,26.48,4.67,26.48,20.33,0,6.33-5.04,11.73-16.03,11.73-6.45,0-12.78-2.27-15.97-5.59Z"/>
        <path class="cls-1" d="M360.19,101.07h4.55v43h-4.55v-43Z"/>
        <path class="cls-1" d="M376.29,101.07h4.55v39.07h24.08v3.93h-28.63v-43Z"/>
      </g>
      <g>
        <g>
          <path class="cls-1" d="M159.51,140.81c0,2.15-1.71,3.42-4.92,3.42h-6.46v-12.47h6.12c3.14,0,4.68,1.34,4.68,3.26,0,1.19-.58,2.15-1.61,2.71,1.35.5,2.19,1.57,2.19,3.08ZM151.48,134.31v2.4h2.32c1.13,0,1.71-.41,1.71-1.21s-.58-1.19-1.71-1.19h-2.32ZM156.1,140.42c0-.85-.62-1.26-1.78-1.26h-2.84v2.53h2.84c1.16,0,1.78-.41,1.78-1.26Z"/>
          <path class="cls-1" d="M167.05,140.92h-1.84v3.31h-3.38v-12.47h5.47c3.26,0,5.31,1.76,5.31,4.61,0,1.83-.85,3.19-2.34,3.94l2.58,3.92h-3.62l-2.17-3.31ZM167.09,134.55h-1.88v3.65h1.88c1.4,0,2.1-.68,2.1-1.82s-.7-1.83-2.1-1.83Z"/>
        </g>
        <g>
          <path class="cls-1" d="M171.41,70.21v13.41H0v-13.41h171.41Z"/>
          <path class="cls-1" d="M157.28,71.65c.54,31.24-21.7,55.8-53.78,58.72-33.92,3.09-61.47-19.3-64.52-52.83-3.05-33.52,20-60.52,53.92-63.6,16.43-1.49,31.34,3.06,42.67,11.99l18.98-1.73C139.83,7.5,117.21-1.64,91.7.69,49.14,4.56,20.6,37.92,24.33,78.87c3.73,40.95,37.82,68.61,80.37,64.74,40.49-3.68,68.61-34.43,67.46-73.32l-14.88,1.35Z"/>
        </g>
      </g>
    </g>
  </g>
</svg>