<?xml version="1.0" encoding="UTF-8"?>
<svg id="Camada_2" data-name="Camada 2" xmlns="http://www.w3.org/2000/svg" viewBox="0 0 308.22 106.65">
  <defs>
    <style>
      .cls-1 {
        fill: #fff;
      }

      .cls-2 {
        fill: #69b870;
      }
    </style>
  </defs>
  <g id="Camada_1-2" data-name="Camada 1">
    <path class="cls-1" d="M253.22,38.77h0s0-.01,0-.01h-6.61c-2.51,0-4.89-1-6.7-2.8-.55-.55-1.03-1.16-1.43-1.81h15.32c6.67,0,12.1-5.43,12.1-12.1s-5.43-12.1-12.1-12.1h0s-7.4-.01-7.4-.01v.02c-5.05.05-9.81,2.06-13.42,5.67-3.66,3.66-5.67,8.5-5.67,13.62s2.01,9.97,5.67,13.62c3.46,3.46,7.97,5.44,12.79,5.65v.02h7.44s0,0,0,0h12.67c-1.48-5.62-6.6-9.78-12.67-9.78M239.91,22.55c1.81-1.81,4.19-2.8,6.7-2.8h0s7.19-.01,7.19-.01h0s0,.01,0,.01c1.25,0,2.31,1.06,2.31,2.31s-1.06,2.31-2.31,2.31h-15.32c.4-.65.87-1.26,1.43-1.81"/>
    <path class="cls-1" d="M216.99,38.71c-1.8,0-3.31-1.52-3.31-3.31v-15.73h3.31c6.08-.01,11.2-4.17,12.67-9.79h-15.99V0c-5.5,1.44-9.59,6.38-9.77,12.28h-.01v23.12c0,7.22,5.88,13.1,13.1,13.1.08,0,12.68-.03,12.68-.03-1.47-5.63-6.6-9.76-12.68-9.76"/>
    <path class="cls-1" d="M196.01,9.88v.02c-5.13,0-9.97,2.01-13.62,5.67-3.62,3.62-5.63,8.4-5.67,13.48h0v19.48h9.79v-19.33c0-2.51,1-4.89,2.8-6.7,1.81-1.81,4.19-2.8,6.7-2.8l4.54-.02v-9.79h-4.54Z"/>
    <path class="cls-1" d="M77.31,24.37h-14.4s0,0,0,0c-1.26,0-2.33-1.07-2.33-2.33s1.07-2.33,2.33-2.33h13.92c6.03-.03,11.1-4.17,12.57-9.75h-26.49c-6.66,0-12.08,5.42-12.08,12.08s5.42,12.08,12.08,12.08h14.4s0,0,0,0c1.26,0,2.33,1.07,2.33,2.33s-1.07,2.33-2.33,2.33l-14.81.04c-5.63.41-10.29,4.41-11.68,9.71h26.49c6.66,0,12.08-5.42,12.08-12.08s-5.42-12.08-12.08-12.08"/>
    <path class="cls-1" d="M125.67,15.65c-3.66-3.66-8.5-5.67-13.62-5.67h-19.27v53.26c5.63-1.47,9.79-6.6,9.79-12.68v-1.99h9.48c5.13,0,9.97-2.01,13.62-5.67,3.66-3.66,5.67-8.5,5.67-13.62s-2.01-9.97-5.67-13.62M118.74,35.98c-1.81,1.81-4.19,2.8-6.7,2.8h-9.48v-19.02h9.48c2.51,0,4.89,1,6.7,2.8,1.81,1.81,2.8,4.19,2.8,6.7s-1,4.89-2.8,6.7"/>
    <path class="cls-2" d="M34.18,29.46c6.17-.17,11.36-4.22,13.24-9.79H14.36c-7.93.04-14.36,6.5-14.36,14.43s6.42,14.37,14.33,14.43h0s19.45,0,19.45,0h13.64c-1.88-5.57-7.07-9.62-13.24-9.79H14.43c-2.52,0-4.64-2.13-4.64-4.64s2.13-4.64,4.64-4.64h0s19.75,0,19.75,0Z"/>
    <path class="cls-1" d="M31.21.09c-6.17.17-11.36,4.22-13.24,9.79h27.69c6.17-.17,11.36-4.22,13.24-9.79h-27.69Z"/>
    <path class="cls-1" d="M296.14,24.37h-14.4s0,0,0,0c-1.26,0-2.33-1.07-2.33-2.33s1.07-2.33,2.33-2.33h13.92c6.03-.03,11.1-4.17,12.57-9.75h-26.49c-6.66,0-12.08,5.42-12.08,12.08s5.42,12.08,12.08,12.08h14.4s0,0,0,0c1.26,0,2.33,1.07,2.33,2.33s-1.07,2.33-2.33,2.33l-14.81.04c-5.63.41-10.29,4.41-11.68,9.71h26.49c6.66,0,12.08-5.42,12.08-12.08s-5.42-12.08-12.08-12.08"/>
    <path class="cls-1" d="M154.06,49.01c-2.66,0-5.25-.52-7.69-1.55-2.35-.99-4.46-2.42-6.28-4.23-1.81-1.81-3.23-3.92-4.23-6.28-1.03-2.44-1.55-5.02-1.55-7.69s.52-5.25,1.55-7.69c.99-2.35,2.42-4.46,4.23-6.28,1.81-1.81,3.92-3.24,6.28-4.23,2.44-1.03,5.02-1.55,7.69-1.55s5.25.52,7.69,1.55c2.35.99,4.46,2.42,6.28,4.23,1.81,1.81,3.23,3.92,4.23,6.28,1.03,2.44,1.55,5.02,1.55,7.69s-.52,5.25-1.55,7.69c-.99,2.35-2.42,4.46-4.23,6.28-1.81,1.81-3.92,3.23-6.28,4.23-2.44,1.03-5.02,1.55-7.69,1.55M154.06,19.77c-5.23,0-9.49,4.26-9.49,9.49s4.26,9.49,9.49,9.49,9.49-4.26,9.49-9.49-4.26-9.49-9.49-9.49"/>
    <path class="cls-1" d="M141.67,77.08h-18.7s0,0,0,0h0c-2.55,0-4.7-2.16-4.7-4.71s2.15-4.7,4.7-4.7h21.22c6.03,0,11.08-4.25,12.31-9.91h-33.53c-8.06,0-14.61,6.56-14.61,14.61s6.56,14.61,14.61,14.61v-.02.02h18.61c2.55,0,4.7,2.16,4.7,4.7s-2.15,4.7-4.7,4.7h-20.91c-6.03,0-11.08,4.25-12.31,9.91h33.23c8.06,0,14.61-6.56,14.61-14.61s-6.51-14.56-14.52-14.61"/>
    <path class="cls-1" d="M277.57,96.48h0s0-.01,0-.01h-6.61c-2.51,0-4.89-1-6.7-2.8-.55-.55-1.03-1.16-1.43-1.81h15.32c6.67,0,12.1-5.43,12.1-12.1s-5.43-12.1-12.1-12.1h0s-7.4-.01-7.4-.01v.02c-5.05.05-9.81,2.06-13.42,5.67-3.66,3.66-5.67,8.5-5.67,13.62s2.01,9.97,5.67,13.62c3.46,3.46,7.97,5.44,12.79,5.65v.02h7.44s0,0,0,0h12.67c-1.48-5.62-6.6-9.78-12.67-9.78M264.26,80.25c1.81-1.81,4.19-2.8,6.7-2.8h0s7.19-.01,7.19-.01h0s0,.01,0,.01c1.25,0,2.31,1.06,2.31,2.31s-1.06,2.31-2.31,2.31h-15.32c.4-.65.87-1.26,1.43-1.81"/>
    <path class="cls-1" d="M241.35,96.45c-1.8,0-3.31-1.52-3.31-3.31v-15.73h3.31c6.08-.01,11.2-4.17,12.67-9.79h-15.99v-9.88c-5.5,1.44-9.59,6.38-9.77,12.28h-.01v23.12c0,7.22,5.88,13.1,13.1,13.1.08,0,.15,0,.23.01l12.45-.04c-1.47-5.63-6.6-9.76-12.68-9.76"/>
    <path class="cls-1" d="M220.36,67.6v.02c-5.13,0-9.97,2.01-13.62,5.67-3.62,3.62-5.63,8.4-5.67,13.48h0v19.48h9.79v-19.33c0-2.51,1-4.89,2.8-6.7,1.81-1.81,4.19-2.8,6.7-2.8v-.02h4.54v-9.79h-4.54Z"/>
    <path class="cls-1" d="M178.42,106.65c-2.66,0-5.25-.52-7.69-1.55-2.35-.99-4.46-2.42-6.28-4.23-1.81-1.81-3.23-3.92-4.23-6.28-1.03-2.44-1.55-5.02-1.55-7.69s.52-5.25,1.55-7.69c.99-2.35,2.42-4.46,4.23-6.28,1.81-1.81,3.92-3.24,6.28-4.23,2.44-1.03,5.02-1.55,7.69-1.55s5.25.52,7.69,1.55c2.35.99,4.46,2.42,6.28,4.23,1.81,1.81,3.23,3.92,4.23,6.28,1.03,2.44,1.55,5.02,1.55,7.69s-.52,5.25-1.55,7.69c-.99,2.35-2.42,4.46-4.23,6.28-1.81,1.81-3.92,3.23-6.28,4.23-2.44,1.03-5.02,1.55-7.69,1.55M178.42,77.41c-5.23,0-9.49,4.26-9.49,9.49s4.26,9.49,9.49,9.49,9.49-4.26,9.49-9.49-4.26-9.49-9.49-9.49"/>
    <path class="cls-1" d="M86.25,67.63h0s0,0,0,0h-26.45c1.48,5.62,6.6,9.78,12.67,9.78h0s13.78.01,13.78.01h0s0,0,0,0c1.25,0,2.31,1.06,2.31,2.31s-1.06,2.31-2.31,2.31h-14.37s0,0,0,0c-6.67,0-12.1,5.43-12.1,12.1s5.43,12.1,12.1,12.1h0s21.57,0,21.57,0h4.89v-26.5c0-6.67-5.43-12.1-12.1-12.1M88.56,96.45h-16.68s0-.01,0-.01c-1.25,0-2.31-1.06-2.31-2.31s1.06-2.31,2.31-2.31h0s0,0,0,0h16.68v4.62Z"/>
    <path class="cls-1" d="M46.95,67.61h-9.74c-5.12,0-9.96,2.02-13.61,5.67-3.66,3.66-5.67,8.5-5.67,13.62s2.01,9.97,5.67,13.62c3.65,3.65,8.49,5.67,13.61,5.67h19.22s0-48.44,0-48.44c-4.73,1.24-8.42,5.05-9.48,9.85M37.22,96.42c-2.51,0-4.89-1-6.7-2.8-1.81-1.81-2.8-4.19-2.8-6.7s1-4.89,2.8-6.7c1.81-1.81,4.19-2.8,6.7-2.8h9.42v19.02h-9.42Z"/>
  </g>
</svg>