<?xml version="1.0" encoding="UTF-8"?>
<svg id="Camada_2" data-name="Camada 2" xmlns="http://www.w3.org/2000/svg" viewBox="0 0 307.93 80.44">
  <defs>
    <style>
      .cls-1 {
        fill: #fff;
        fill-rule: evenodd;
      }

      .cls-2 {
        fill: #e7303d;
      }
    </style>
  </defs>
  <g id="Camada_1-2" data-name="Camada 1">
    <path class="cls-1" d="M123.19,55.92c-.04.06-.06.13-.06.2v10.2c.01.08.04.15.08.21v.4c0,.23.19.42.42.42h7.52c.23,0,.42-.19.42-.42v-22.59c0-.24.01-.48.03-.72.03-.37-.45-.54-.66-.24-1.17,1.66-2.4,3.68-3.8,6.09-1.25,2.15-2.53,4.34-3.95,6.44Z"/>
    <path class="cls-1" d="M201.15,45.92s0-.01,0-.02v-18.41c0-.22-.19-.4-.41-.4h-7.28c-.23,0-.41.18-.41.4v2.92c0,.29-.33.47-.57.3-2.03-1.4-4.33-2.45-6.83-3.05,0,0-.01,0-.02,0-.43-.1-.86-.19-1.3-.27-.05,0-.09-.02-.14-.02-.13-.02-.25-.04-.38-.06-.07,0-.14-.02-.2-.03-.1-.01-.2-.03-.31-.04-.84-.1-1.68-.15-2.53-.15h-.01c-.85,0-1.69.05-2.53.15-7.34.89-13.37,5.59-16.18,11.92-.05.11-.04.24.02.34,2.02,3.32,3.83,6.74,5.84,9.69.22.32.72.13.67-.26-.08-.56-.12-1.13-.12-1.71,0-5.93,4.35-11.01,10.29-11.98.67-.11,1.35-.17,2.03-.17.68,0,1.36.06,2.03.17l.16.03c5.57.98,9.7,5.61,10.09,11.1,0,.01,0,.02,0,.03v1.65s0,.02,0,.03c-.4,5.55-4.61,10.2-10.25,11.13-.67.11-1.35.17-2.03.17,0,0,0,0-.01,0h0c-9.29,0-13.31-6.9-17.97-14.9-.54-.93-1.09-1.87-1.66-2.81,0,0,0,0,0,0h0c-4.41-7.33-9.85-14.6-20.46-14.6-3.49,0-6.41.79-8.93,2.1-.24.13-.53-.05-.53-.33v-1.35c0-.22-.19-.41-.41-.41h-7.28c-.23,0-.41.18-.41.41v9.6c.01.08-.01.15-.06.21-.92,1.28-1.77,2.62-2.58,3.96-.16.27-.57.22-.66-.08-2.31-7.34-8.72-12.96-16.72-13.94-.83-.1-1.66-.15-2.49-.15s-1.67.05-2.49.15c-10.08,1.24-17.65,9.84-17.65,19.99s7.57,18.74,17.65,19.99c.83.1,1.66.15,2.49.15h0c6.27,0,11.51-2.1,16.01-6.44,2.59-2.5,4.65-5.45,6.53-8.5h0s0,0,0,0c.4-.64.78-1.29,1.17-1.94.01-.02.03-.05.04-.07.38-.64.75-1.28,1.13-1.92,4.86-8.34,8.19-13.17,15.21-13.17,0,0,0,0,0,0h0s.02,0,.03,0c.13,0,.25,0,.38,0,0,0,.02,0,.03,0,4.97.22,8.77,4.29,8.77,9.02v22.59c0,.23.19.42.42.42h7.52c.23,0,.42-.19.42-.42v-13.2c0-.37.48-.51.67-.2,1.69,2.64,3.55,5.19,5.83,7.38,4.5,4.34,9.74,6.44,16.01,6.44h0s0,0,0,0c0,0,0,0,0,0s0,0,0,0c.85,0,1.69-.05,2.53-.15.1-.01.2-.03.3-.04.07,0,.14-.02.22-.03.12-.02.25-.04.37-.06.06,0,.11-.02.17-.03.42-.07.83-.16,1.25-.26.03,0,.06-.01.09-.02,1-.24,1.98-.56,2.94-.95.02,0,.04-.02.06-.03,1.36-.57,2.65-1.27,3.84-2.1.24-.17.57,0,.57.3v2.33c0,.22.18.41.41.41h7.28c.23,0,.41-.18.41-.41v-19.11c0-.44-.02-.87-.04-1.31ZM98.58,59.21l-.17-.03c-5.77-1.04-9.98-6.1-9.98-11.96s4.29-11.01,10.15-11.98c.66-.11,1.33-.17,2.01-.17s1.34.06,2,.17l.16.03c5.78,1.03,9.99,6.09,9.99,11.96s-4.29,11.01-10.15,11.98c-.66.11-1.33.17-2.01.17s-1.34-.06-2-.17Z"/>
    <path class="cls-2" d="M299.75,15.67c0-.23-.19-.42-.43-.42h-7.59c-.24,0-.43.19-.43.42v13.78c0,.32.37.49.61.29,2.16-1.78,4.64-3.24,7.57-4.21.15-.05.26-.19.26-.35v-9.5Z"/>
    <path class="cls-2" d="M307.51,59.04h-7.26c-.27,0-.5-.22-.5-.49v-21.65c0-.13.07-.25.18-.32,2.13-1.33,4.6-2.13,7.64-2.19.2,0,.37-.17.37-.37v-7.41c0-.21-.17-.38-.38-.38-6.24.08-11.46,2.24-15.96,6.57-3.78,3.64-6.46,8.24-9.05,12.68-4.96,8.51-8.36,13.72-15.52,13.72s-10.57-5.21-15.52-13.72c-2.59-4.45-5.27-9.04-9.05-12.68-4.59-4.43-9.94-6.58-16.34-6.58v.02s0,0-.01,0h-.01c-.86,0-1.73.05-2.58.16-.1.01-.21.03-.31.04-.07,0-.14.02-.21.03-.13.02-.26.04-.39.06-.05,0-.1.02-.14.02-.45.08-.89.17-1.32.27,0,0-.01,0-.02,0-2.54.61-4.89,1.68-6.96,3.1-.25.17-.58,0-.58-.31v-14.01c0-.21-.17-.37-.37-.37h-7.54c-.21,0-.37.17-.37.37v11.02s0,.01,0,.02v18.79s0,.01,0,.02c-.03.44-.04.89-.04,1.33v19.5c0,.23.19.41.42.41h7.43c.23,0,.42-.19.42-.41v-2.38c0-.3.34-.48.59-.31,1.21.85,2.53,1.57,3.92,2.14.02.01.04.02.06.03.97.4,1.98.72,3,.97.19.05.39.09.57.18.06.03.12.04.18.04.24,0,.51.05.78.1.13.02.25.04.38.06.07.01.15.02.22.03.1.01.2.03.3.04.86.1,1.72.16,2.58.16,0,0,0,0,0,0,0,0,0,0,0,0,.86,0,1.73-.05,2.58-.16,8.16-.99,14.73-6.58,17.21-13.93.1-.3.51-.35.67-.07,4.3,7.23,9.45,14.16,20.47,14.16,12.94,0,17.72-9.44,22.57-17.77.34-.59.68-1.17,1.02-1.74.19-.33.7-.19.7.19v12.78c0,3.6,2.98,6.54,6.63,6.54h9.57c.24,0,.43-.19.43-.42v-7.48c0-.23-.19-.42-.43-.42ZM228.33,59.01l-.17.03c-.68.11-1.38.17-2.07.17-.69,0-1.39-.06-2.07-.17-5.76-.94-10.06-5.69-10.47-11.36,0-.01,0-.02,0-.03v-1.69s0-.02,0-.03c.4-5.61,4.62-10.33,10.3-11.33l.16-.03c.68-.11,1.38-.17,2.07-.17.69,0,1.39.06,2.07.17,6.06.99,10.5,6.18,10.5,12.23s-4.35,11.15-10.33,12.21Z"/>
    <path class="cls-2" d="M277.03,50.73c1.15-1.73,6.7-11.09,8.1-13.22.08-.12.08-.26.02-.38-3.06-5.73-8.76-9.88-15.58-10.72-.84-.1-1.7-.16-2.55-.16s-1.7.05-2.55.16c-6.83.84-12.53,5-15.59,10.72-.06.12-.06.27.02.38,1.4,2.14,6.95,11.49,8.1,13.22.07.1.19.17.31.17h19.41c.13,0,.24-.06.31-.17ZM264.97,34.57c.68-.11,1.36-.17,2.05-.17s1.37.06,2.05.17l.16.03c4.31.77,7.76,3.73,9.31,7.61.1.25-.08.52-.35.52h-22.34c-.27,0-.45-.27-.35-.52,1.57-3.92,5.09-6.91,9.47-7.63Z"/>
    <path class="cls-2" d="M62.96,45.47c0,15.43-12.55,27.98-27.98,27.98S7,60.9,7,45.47s12.55-27.98,27.98-27.98c6.46,0,12.41,2.2,17.15,5.89l4.98-4.99c-6.03-4.93-13.74-7.9-22.14-7.9C15.66,10.49,0,26.15,0,45.47s15.66,34.98,34.98,34.98,34.98-15.66,34.98-34.98c0-8.4-2.96-16.11-7.9-22.14l-4.99,4.98c3.69,4.74,5.89,10.69,5.89,17.15Z"/>
    <path class="cls-2" d="M48.97,45.47c0,7.71-6.28,13.99-13.99,13.99s-13.99-6.28-13.99-13.99,6.28-13.99,13.99-13.99c2.59,0,5.02.71,7.11,1.95l5.05-5.06c-3.43-2.45-7.63-3.89-12.16-3.89-11.59,0-20.99,9.4-20.99,20.99s9.4,20.99,20.99,20.99,20.99-9.4,20.99-20.99c0-4.53-1.44-8.73-3.89-12.16l-5.06,5.05c1.24,2.08,1.95,4.52,1.95,7.11Z"/>
    <path class="cls-2" d="M32.5,43.02h0c-.59.6-.96,1.42-.96,2.32v.27c0,1.81,1.48,3.3,3.3,3.3h.27c.9,0,1.72-.37,2.32-.96h0s.01-.01.02-.02l9.57-9.56c-1.2-2.03-2.9-3.73-4.93-4.93l-9.56,9.57s-.01.01-.02.02Z"/>
    <path class="cls-2" d="M69.95,20.99l10.49-10.49h-10.49V0l-10.49,10.49v5.55s-2.35,2.34-2.35,2.34c1.81,1.48,3.46,3.14,4.94,4.94l2.35-2.35h5.55Z"/>
    <path class="cls-2" d="M52.07,33.31l4.99-4.99c-1.44-1.84-3.1-3.51-4.94-4.94l-4.99,4.99c1.91,1.36,3.58,3.03,4.94,4.94Z"/>
  </g>
</svg>