<?xml version="1.0" encoding="UTF-8"?>
<svg id="Camada_2" data-name="Camada 2" xmlns="http://www.w3.org/2000/svg" viewBox="0 0 1212.73 613.96">
  <defs>
    <style>
      .cls-1 {
        fill: #2f2d7e;
      }
    </style>
  </defs>
  <g id="Camada_2-2" data-name="Camada 2">
    <g id="OCTOR">
      <path class="cls-1" d="M1065.03,453.78c-20.16,9.63-43.3,14.26-70.15,14.26-51.09,0-123.8-40.48-199.5-111.07-18.39-17.16-35.27-34.48-50.18-50.72.4-.44,3.08-3.31,3.08-3.31,14.03-14.97,29.69-30.79,46.63-46.45,75.73-69.98,148.61-110.11,199.96-110.11,25.33,0,47.38,4.13,66.73,12.67l149.82-68.81C1162.6,38.54,1091.98.46,994.88.46c-131.68,0-260.35,105.9-343.85,192.97C567.53,106.27,438.66,0,306.75,0,83.18,0,0,201.91,0,306.75s83.18,306.75,306.75,306.75c131.68,0,260.33-106.88,343.85-194.74,83.49,87.95,212.36,195.2,344.27,195.2,97.98,0,169-38.79,217.86-91.18l-147.71-69h.01ZM506.25,356.51c-75.69,70.58-148.4,111.07-199.5,111.07s-91.64-18.09-121.41-56.91c-28.91-37.73-39.42-82.82-39.42-103.92s10.51-66.19,39.42-103.92c29.77-38.82,68.35-56.91,121.41-56.91s124.22,40.13,199.93,110.11c18.22,16.82,34.94,33.81,49.74,49.76-14.93,16.26-31.79,33.58-50.18,50.72h.01Z"/>
    </g>
  </g>
</svg>